<?xml version="1.0" encoding="utf-8"?>
<!-- Generator: Adobe Illustrator 19.2.1, SVG Export Plug-In . SVG Version: 6.00 Build 0)  -->
<svg width="119.4px" height="15px" version="1.1" id="Layer_1" xmlns="http://www.w3.org/2000/svg" xmlns:xlink="http://www.w3.org/1999/xlink" x="0px" y="0px"
	 viewBox="0 0 119.4 15" style="enable-background:new 0 0 119.4 15;" xml:space="preserve">
<style type="text/css">
	.st0{fill:#FFFFFF;}
</style>
<g>
	<g>
		<path class="st0" d="M10,4.6V1.3H4.8v12.1h2.4v1.1H0v-1.1h2.4V1.3H0V0.2h11.8v4.4H10z"/>
		<path class="st0" d="M27,13.6v1.1h-4.7v-1.3c-1.1,1.1-2.9,1.6-4.4,1.6c-3.5,0-5.3-2.5-5.3-4.7c0-2.6,2-5.2,5.5-5.2
			c1.7,0,3.2,0.6,4.2,1.8V4.6c0-2.8-1.8-3.5-3.2-3.5c-2.1,0-3.7,1.3-4,1.6l-0.9-1.2C15.6,0.4,17,0,19,0c5.5,0,5.6,3.3,5.6,6.8v6.7
			H27z M22.3,8.8c-0.4-1.1-1.4-2.5-3.1-2.5c-2.1,0-4.1,1.4-4.1,3.9c0,2.1,1.9,3.4,3.6,3.4c1.2,0,2.8-0.7,3.5-2.4V8.8z"/>
		<path class="st0" d="M28.2,4.6V0.3h1.1v1.1l-0.1,0.4h0.2l0.2-0.4C30.3,0.7,31.4,0,33.5,0c3.6,0,4.9,2.1,4.9,3.7
			c0,0.9-0.2,2.9-3.3,3.4v0.2c2.2,0,4.2,1.4,4.2,3.7c0,2.3-2.2,4.1-6.6,4.1c-2.4,0-4.5-0.7-5.9-3l1.3-1.1c0.6,2,2.4,3.2,4.9,3.2
			c2.4,0,3.6-1.7,3.6-3.1c0-3-2.7-3.2-4.1-3.2h-1v-1h1c1.9,0,3.6-0.8,3.6-3c0-1.5-1-2.7-2.6-2.7c-2.7,0-4.2,1.4-4.1,3.5H28.2z"/>
		<path class="st0" d="M43.7,7.8c0,1.6,0.4,6,4.9,6c2,0,3.6-0.7,5.2-2.3l0.8,0.8c-1.5,1.7-4,2.7-6.2,2.7c-3.6,0-7.5-2.2-7.5-7.5
			C41,2.4,44.6,0,47.9,0c3.5,0,7.1,2.4,6.8,7.8H43.7z M51.9,6.8c0-3.7-1.8-5.8-4.2-5.8c-2.4,0-4.2,2.6-4.1,5.8H51.9z"/>
		<path class="st0" d="M59.3,13.6h2.4V1.4h-4v3.2H56V0.4h13.9v4.3h-1.7V1.4h-4v12.1h2.4v1.1h-7.1V13.6z"/>
		<path class="st0" d="M85.3,13.6v1.1h-4.7v-1.3c-1.1,1.1-2.9,1.6-4.4,1.6c-3.5,0-5.3-2.5-5.3-4.7c0-2.6,2-5.2,5.5-5.2
			c1.7,0,3.2,0.6,4.2,1.8V4.6c0-2.8-1.8-3.5-3.2-3.5c-2.1,0-3.7,1.3-4,1.6l-0.9-1.2C73.9,0.4,75.3,0,77.3,0c5.5,0,5.6,3.3,5.6,6.8
			v6.7H85.3z M80.6,8.8c-0.4-1.1-1.4-2.5-3.1-2.5c-2.1,0-4.1,1.4-4.1,3.9c0,2.1,1.9,3.4,3.6,3.4c1.2,0,2.8-0.7,3.5-2.4V8.8z"/>
		<path class="st0" d="M88.2,11.2c1,0,1.5,0.9,1.5,1.9c0,1-0.5,1.9-1.5,1.9c-0.9,0-1.5-0.8-1.5-1.9C86.7,12.2,87.2,11.2,88.2,11.2z"
			/>
		<path class="st0" d="M96.1,0.4v2.3h0.2C97,1,98,0.1,99.6,0.1c0.4,0,1.6,0.1,2.3,1l-1.2,2c-0.6-0.9-1.4-1.1-2-1.1
			c-1.4,0-2.6,1.9-2.6,4.1v7.6h2.4v1.1h-7.1v-1.1h2.4V1.5h-2.4V0.4H96.1z"/>
		<path class="st0" d="M107.7,0.3v9.6c0,0.7,0,3.8,3.2,3.8c2,0,3.7-1.2,3.7-4.1V1.4h-2.3V0.3h4.8v13.2h2.4v1.1h-4.8v-1.1l0.2-0.7
			h-0.2l-0.4,0.7c-1.4,1.4-3.1,1.6-4.2,1.6c-4.7,0-4.7-4.1-4.7-5.2V1.4h-2.3V0.3H107.7z"/>
	</g>
</g>
</svg>
