<?xml version="1.0" encoding="utf-8"?>
<!-- Generator: Adobe Illustrator 19.2.1, SVG Export Plug-In . SVG Version: 6.00 Build 0)  -->
<svg width="172.7px" height="8.3px" version="1.1" id="Layer_1" xmlns="http://www.w3.org/2000/svg" xmlns:xlink="http://www.w3.org/1999/xlink" x="0px" y="0px"
	 viewBox="0 0 172.7 8.3" style="enable-background:new 0 0 172.7 8.3;" xml:space="preserve">
<style type="text/css">
	.st0{fill:#ACACAC;}
	.st1{fill:#FFFFFF;}
</style>
<g>
	<path class="st0" d="M0,0.3h3.4c1.7,0,2.7,1,2.7,2.3S5,4.9,3.4,4.9H1.6v3H0V0.3z M3.3,3.6c0.7,0,1.2-0.3,1.2-1c0-0.6-0.5-1-1.2-1
		H1.6v1.9H3.3z"/>
	<path class="st0" d="M10.6,0.2h1.5L15.4,8h-1.7L13,6.2H9.7L8.9,8H7.3L10.6,0.2z M12.4,4.9l-1.1-2.7l-1.1,2.7H12.4z"/>
	<path class="st0" d="M17.5,0.3h1.6l2.2,3.2l2.2-3.2h1.6V8h-1.6V2.7l-1.8,2.5h-0.9l-1.8-2.5V8h-1.6V0.3z"/>
	<path class="st0" d="M28.2,0.3h5.6v1.4h-4v1.2h1.7c1.8,0,2.9,1.1,2.9,2.5c0,1.5-1.1,2.5-2.9,2.5h-3.3V0.3z M31.4,6.6
		c0.9,0,1.4-0.4,1.4-1.2s-0.5-1.2-1.4-1.2h-1.6v2.3H31.4z"/>
	<path class="st0" d="M36.6,6.5c0.1,0.1,0.3,0.1,0.6,0.1c0.9,0,1-1,1.1-4l0-2.3h5.4V8h-1.6V1.7h-2.3l0,1.6C39.7,6.8,39.1,8,37.3,8
		c-0.2,0-0.5,0-0.6-0.1V6.5z"/>
	<path class="st0" d="M46.8,0.3h5.7v1.4h-4.1v1.5h3.3v1.4h-3.3v2h4.2V8h-5.8V0.3z"/>
	<path class="st0" d="M55.2,0.3h3.4c1.7,0,2.7,1,2.7,2.3s-1,2.3-2.7,2.3h-1.8v3h-1.6V0.3z M58.5,3.6c0.7,0,1.2-0.3,1.2-1
		c0-0.6-0.5-1-1.2-1h-1.7v1.9H58.5z"/>
	<path class="st1" d="M67.5,0.3h1.6v5l3.7-5h1.4V8h-1.6v-5l-3.8,5h-1.3V0.3z"/>
	<path class="st1" d="M77.3,0.3h1.6v2.9h3.5V0.3h1.6V8h-1.6V4.6h-3.5V8h-1.6V0.3z"/>
	<path class="st1" d="M90.5,7.4c-2.5-0.1-3.7-1.7-3.7-3.4c0-1.7,1.2-3.3,3.7-3.4V0h1.6v0.7c2.5,0.1,3.7,1.7,3.7,3.4
		c0,1.7-1.2,3.3-3.7,3.4v0.8h-1.6V7.4z M90.5,2.1c-1.4,0-2.1,0.8-2.1,1.9c0,1.1,0.7,1.9,2.1,1.9V2.1z M94.2,4.1
		c0-1.1-0.7-1.9-2.1-1.9V6C93.4,6,94.2,5.2,94.2,4.1z"/>
	<path class="st1" d="M98.3,4.1c0-2.2,1.7-4,4-4s4,1.8,4,4c0,2.2-1.7,4-4,4S98.3,6.3,98.3,4.1z M104.7,4.1c0-1.5-1-2.5-2.4-2.5
		S100,2.7,100,4.1s1,2.5,2.4,2.5S104.7,5.6,104.7,4.1z"/>
	<path class="st1" d="M109.3,0.3h5.6v1.4h-4V8h-1.6V0.3z"/>
	<path class="st1" d="M117.4,0.3h3.4c1.7,0,2.7,1,2.7,2.3s-1,2.3-2.7,2.3H119v3h-1.6V0.3z M120.7,3.6c0.7,0,1.2-0.3,1.2-1
		c0-0.6-0.5-1-1.2-1H119v1.9H120.7z"/>
	<path class="st1" d="M128,0.2h1.5l3.3,7.7h-1.7l-0.8-1.8h-3.3L126.3,8h-1.7L128,0.2z M129.9,4.9l-1.1-2.7l-1.1,2.7H129.9z"/>
	<path class="st1" d="M137.8,7.4c-2.5-0.1-3.7-1.7-3.7-3.4c0-1.7,1.2-3.3,3.7-3.4V0h1.6v0.7c2.5,0.1,3.7,1.7,3.7,3.4
		c0,1.7-1.2,3.3-3.7,3.4v0.8h-1.6V7.4z M137.8,2.1c-1.4,0-2.1,0.8-2.1,1.9c0,1.1,0.7,1.9,2.1,1.9V2.1z M141.5,4.1
		c0-1.1-0.7-1.9-2.1-1.9V6C140.8,6,141.5,5.2,141.5,4.1z"/>
	<path class="st1" d="M145.8,0.3h1.6v5l3.7-5h1.4V8H151v-5l-3.8,5h-1.3V0.3z"/>
	<path class="st1" d="M155.6,0.3h1.6v3l2.8-3h1.9l-3.3,3.5l3.8,4.2h-2l-3.3-3.6V8h-1.6V0.3z"/>
	<path class="st1" d="M167.9,0.2h1.5l3.3,7.7H171l-0.8-1.8H167L166.2,8h-1.7L167.9,0.2z M169.8,4.9l-1.1-2.7l-1.1,2.7H169.8z"/>
</g>
</svg>
