<?xml version="1.0" encoding="utf-8"?>
<!-- Generator: Adobe Illustrator 19.2.1, SVG Export Plug-In . SVG Version: 6.00 Build 0)  -->
<svg version="1.1" id="Layer_1" xmlns="http://www.w3.org/2000/svg" xmlns:xlink="http://www.w3.org/1999/xlink" x="0px" y="0px"
	 viewBox="0 0 333.6 16" style="enable-background:new 0 0 333.6 16;" xml:space="preserve">
<style type="text/css">
	.st0{fill:#9D242C;}
	.st1{fill:#FFFFFF;}
	.st2{fill:#A1A1A1;}
</style>
<rect x="-1167.2" y="-98.6" class="st0" width="1990" height="50"/>
<g>
	<g>
		<path class="st1" d="M-652.6-76.4v-3.3h-5.2v12.1h2.4v1.1h-7.1v-1.1h2.4v-12.1h-2.4v-1.1h11.8v4.4H-652.6z"/>
		<path class="st1" d="M-635.6-67.5v1.1h-4.7v-1.3c-1.1,1.1-2.9,1.6-4.4,1.6c-3.5,0-5.3-2.5-5.3-4.7c0-2.6,2-5.2,5.5-5.2
			c1.7,0,3.2,0.6,4.2,1.8v-2.2c0-2.8-1.8-3.5-3.2-3.5c-2.1,0-3.7,1.3-4,1.6l-0.9-1.2c1.5-1.1,2.8-1.4,4.8-1.4c5.5,0,5.6,3.3,5.6,6.8
			v6.7H-635.6z M-640.3-72.3c-0.4-1.1-1.4-2.5-3.1-2.5c-2.1,0-4.1,1.4-4.1,3.9c0,2.1,1.9,3.4,3.6,3.4c1.2,0,2.8-0.7,3.5-2.4V-72.3z"
			/>
		<path class="st1" d="M-634.4-76.4v-4.3h1.1v1.1l-0.1,0.4h0.2l0.2-0.4c0.7-0.7,1.9-1.4,3.9-1.4c3.6,0,4.9,2.1,4.9,3.7
			c0,0.9-0.2,2.9-3.3,3.4v0.2c2.2,0,4.2,1.4,4.2,3.7c0,2.3-2.2,4.1-6.6,4.1c-2.4,0-4.5-0.7-5.9-3l1.3-1.1c0.6,2,2.4,3.2,4.9,3.2
			c2.4,0,3.6-1.7,3.6-3.1c0-3-2.7-3.2-4.1-3.2h-1v-1h1c1.9,0,3.6-0.8,3.6-3c0-1.5-1-2.7-2.6-2.7c-2.7,0-4.2,1.4-4.1,3.5H-634.4z"/>
		<path class="st1" d="M-618.9-73.3c0,1.6,0.4,6,4.9,6c2,0,3.6-0.7,5.2-2.3l0.8,0.8c-1.5,1.7-4,2.7-6.2,2.7c-3.6,0-7.5-2.2-7.5-7.5
			c0-5.1,3.6-7.4,6.9-7.4c3.5,0,7.1,2.4,6.8,7.8H-618.9z M-610.6-74.3c0-3.7-1.8-5.8-4.2-5.8c-2.4,0-4.2,2.6-4.1,5.8H-610.6z"/>
		<path class="st1" d="M-603.2-67.5h2.4v-12.1h-4v3.2h-1.7v-4.3h13.9v4.3h-1.7v-3.2h-4v12.1h2.4v1.1h-7.1V-67.5z"/>
		<path class="st1" d="M-577.3-67.5v1.1h-4.7v-1.3c-1.1,1.1-2.9,1.6-4.4,1.6c-3.5,0-5.3-2.5-5.3-4.7c0-2.6,2-5.2,5.5-5.2
			c1.7,0,3.2,0.6,4.2,1.8v-2.2c0-2.8-1.8-3.5-3.2-3.5c-2.1,0-3.7,1.3-4,1.6l-0.9-1.2c1.5-1.1,2.8-1.4,4.8-1.4c5.5,0,5.6,3.3,5.6,6.8
			v6.7H-577.3z M-582-72.3c-0.4-1.1-1.4-2.5-3.1-2.5c-2.1,0-4.1,1.4-4.1,3.9c0,2.1,1.9,3.4,3.6,3.4c1.2,0,2.8-0.7,3.5-2.4V-72.3z"/>
		<path class="st1" d="M-574.3-69.9c1,0,1.5,0.9,1.5,1.9c0,1-0.5,1.9-1.5,1.9c-0.9,0-1.5-0.8-1.5-1.9
			C-575.8-68.9-575.4-69.9-574.3-69.9z"/>
		<path class="st1" d="M-566.5-80.7v2.3h0.2c0.7-1.7,1.7-2.6,3.3-2.6c0.4,0,1.6,0.1,2.3,1l-1.2,2c-0.6-0.9-1.4-1.1-2-1.1
			c-1.4,0-2.6,1.9-2.6,4.1v7.6h2.4v1.1h-7.1v-1.1h2.4v-12.1h-2.4v-1.1H-566.5z"/>
		<path class="st1" d="M-554.9-80.8v9.6c0,0.7,0,3.8,3.2,3.8c2,0,3.7-1.2,3.7-4.1v-8.2h-2.3v-1.1h4.8v13.2h2.4v1.1h-4.8v-1.1
			l0.2-0.7h-0.2l-0.4,0.7c-1.4,1.4-3.1,1.6-4.2,1.6c-4.7,0-4.7-4.1-4.7-5.2v-8.4h-2.3v-1.1H-554.9z"/>
	</g>
</g>
<g>
	<path class="st2" d="M0,0.6h6.5c3.3,0,5.2,1.9,5.2,4.5S9.8,9.5,6.5,9.5H3.1v5.9H0V0.6z M6.3,6.9c1.4,0,2.3-0.7,2.3-1.8
		c0-1.2-0.9-1.8-2.3-1.8H3.1v3.7H6.3z"/>
	<path class="st2" d="M20.4,0.5h2.9l6.4,15h-3.3L25,12h-6.3l-1.5,3.4h-3.2L20.4,0.5z M24,9.5l-2.2-5.2l-2.2,5.2H24z"/>
	<path class="st2" d="M33.8,0.6h3l4.3,6.2l4.3-6.2h3v14.9h-3V5.2L42.1,10h-1.7l-3.5-4.8v10.2h-3.1V0.6z"/>
	<path class="st2" d="M54.5,0.6h10.8v2.7h-7.7v2.4H61c3.5,0,5.6,2.1,5.6,4.9c0,2.8-2.1,4.9-5.6,4.9h-6.4V0.6z M60.7,12.7
		c1.7,0,2.8-0.8,2.8-2.2s-1-2.3-2.8-2.3h-3.1v4.5H60.7z"/>
	<path class="st2" d="M70.7,12.5c0.3,0.1,0.6,0.2,1.1,0.2c1.7,0,2-2,2.1-7.8L74,0.6h10.5v14.9h-3V3.3h-4.5l-0.1,3
		c-0.2,6.9-1.3,9.2-4.9,9.2c-0.4,0-0.9,0-1.3-0.2V12.5z"/>
	<path class="st2" d="M90.5,0.6h10.9v2.7h-7.9v2.9h6.3v2.7h-6.3v3.8h8.1v2.7H90.5V0.6z"/>
	<path class="st2" d="M106.6,0.6h6.5c3.3,0,5.2,1.9,5.2,4.5s-1.9,4.5-5.2,4.5h-3.4v5.9h-3.1V0.6z M112.9,6.9c1.4,0,2.3-0.7,2.3-1.8
		c0-1.2-0.9-1.8-2.3-1.8h-3.2v3.7H112.9z"/>
	<path class="st1" d="M130.3,0.6h3.1v9.7l7.2-9.7h2.6v14.9h-3V5.7l-7.3,9.8h-2.6V0.6z"/>
	<path class="st1" d="M149.2,0.6h3.1v5.6h6.7V0.6h3v14.9h-3V8.9h-6.7v6.5h-3.1V0.6z"/>
	<path class="st1" d="M174.8,14.4c-4.8-0.2-7.2-3.3-7.2-6.5c0-3.2,2.3-6.3,7.2-6.5V0h3.1v1.4c4.8,0.2,7.2,3.3,7.2,6.5
		c0,3.2-2.3,6.3-7.2,6.5V16h-3.1V14.4z M174.8,4.1c-2.6,0-4,1.6-4,3.7c0,2.2,1.4,3.7,4,3.7V4.1z M181.9,7.9c0-2.2-1.4-3.7-4-3.7v7.5
		C180.5,11.5,181.9,10,181.9,7.9z"/>
	<path class="st1" d="M189.9,8c0-4.3,3.3-7.7,7.7-7.7s7.7,3.4,7.7,7.7c0,4.3-3.3,7.7-7.7,7.7S189.9,12.3,189.9,8z M202.2,8
		c0-2.8-2-4.9-4.6-4.9c-2.6,0-4.6,2.1-4.6,4.9s2,4.9,4.6,4.9C200.3,12.9,202.2,10.8,202.2,8z"/>
	<path class="st1" d="M211.1,0.6h10.7v2.7h-7.7v12.1h-3.1V0.6z"/>
	<path class="st1" d="M226.8,0.6h6.5c3.3,0,5.2,1.9,5.2,4.5s-1.9,4.5-5.2,4.5h-3.4v5.9h-3.1V0.6z M233.1,6.9c1.4,0,2.3-0.7,2.3-1.8
		c0-1.2-0.9-1.8-2.3-1.8h-3.2v3.7H233.1z"/>
	<path class="st1" d="M247.2,0.5h2.9l6.4,15h-3.3l-1.5-3.4h-6.3l-1.5,3.4h-3.2L247.2,0.5z M250.8,9.5l-2.2-5.2l-2.2,5.2H250.8z"/>
	<path class="st1" d="M266.2,14.4c-4.8-0.2-7.2-3.3-7.2-6.5c0-3.2,2.3-6.3,7.2-6.5V0h3.1v1.4c4.8,0.2,7.2,3.3,7.2,6.5
		c0,3.2-2.3,6.3-7.2,6.5V16h-3.1V14.4z M266.2,4.1c-2.6,0-4,1.6-4,3.7c0,2.2,1.4,3.7,4,3.7V4.1z M273.3,7.9c0-2.2-1.4-3.7-4-3.7v7.5
		C271.9,11.5,273.3,10,273.3,7.9z"/>
	<path class="st1" d="M281.7,0.6h3.1v9.7l7.2-9.7h2.6v14.9h-3V5.7l-7.3,9.8h-2.6V0.6z"/>
	<path class="st1" d="M300.6,0.6h3.1v5.9l5.5-5.9h3.7l-6.3,6.8l7.4,8.1h-3.9l-6.4-6.9v6.9h-3.1V0.6z"/>
	<path class="st1" d="M324.2,0.5h2.9l6.4,15h-3.3l-1.5-3.4h-6.3l-1.5,3.4h-3.2L324.2,0.5z M327.9,9.5l-2.2-5.2l-2.2,5.2H327.9z"/>
</g>
</svg>
